<svg width="100" height="100" viewBox="0 0 80 50" fill="none" xmlns="http://www.w3.org/2000/svg">
<path d="M1.992 45.1154V28.3154H10.2C12.312 28.3154 13.896 28.7154 14.952 29.5154C16.024 30.3154 16.56 31.3714 16.56 32.6834C16.56 33.5634 16.344 34.3314 15.912 34.9874C15.48 35.6274 14.888 36.1234 14.136 36.4754C13.384 36.8274 12.52 37.0034 11.544 37.0034L12 36.0194C13.056 36.0194 13.992 36.1954 14.808 36.5474C15.624 36.8834 16.256 37.3874 16.704 38.0594C17.168 38.7314 17.4 39.5554 17.4 40.5314C17.4 41.9714 16.832 43.0994 15.696 43.9154C14.56 44.7154 12.888 45.1154 10.68 45.1154H1.992ZM5.856 42.1874H10.392C11.4 42.1874 12.16 42.0274 12.672 41.7074C13.2 41.3714 13.464 40.8434 13.464 40.1234C13.464 39.4194 13.2 38.8994 12.672 38.5634C12.16 38.2114 11.4 38.0354 10.392 38.0354H5.568V35.2034H9.72C10.664 35.2034 11.384 35.0434 11.88 34.7234C12.392 34.3874 12.648 33.8834 12.648 33.2114C12.648 32.5554 12.392 32.0674 11.88 31.7474C11.384 31.4114 10.664 31.2434 9.72 31.2434H5.856V42.1874ZM27.8076 45.4034C25.4236 45.4034 23.5596 44.7394 22.2156 43.4114C20.8716 42.0834 20.1996 40.1874 20.1996 37.7234V28.3154H24.0876V37.5794C24.0876 39.1794 24.4156 40.3314 25.0716 41.0354C25.7276 41.7394 26.6476 42.0914 27.8316 42.0914C29.0156 42.0914 29.9356 41.7394 30.5916 41.0354C31.2476 40.3314 31.5756 39.1794 31.5756 37.5794V28.3154H35.4156V37.7234C35.4156 40.1874 34.7436 42.0834 33.3996 43.4114C32.0556 44.7394 30.1916 45.4034 27.8076 45.4034ZM39.2576 45.1154V28.3154H43.1456V45.1154H39.2576ZM47.1326 45.1154V28.3154H51.0206V41.9474H59.4446V45.1154H47.1326ZM61.617 45.1154V28.3154H69.249C71.073 28.3154 72.681 28.6674 74.073 29.3714C75.465 30.0594 76.553 31.0274 77.337 32.2754C78.121 33.5234 78.513 35.0034 78.513 36.7154C78.513 38.4114 78.121 39.8914 77.337 41.1554C76.553 42.4034 75.465 43.3794 74.073 44.0834C72.681 44.7714 71.073 45.1154 69.249 45.1154H61.617ZM65.505 41.9234H69.057C70.177 41.9234 71.145 41.7154 71.961 41.2994C72.793 40.8674 73.433 40.2594 73.881 39.4754C74.345 38.6914 74.577 37.7714 74.577 36.7154C74.577 35.6434 74.345 34.7234 73.881 33.9554C73.433 33.1714 72.793 32.5714 71.961 32.1554C71.145 31.7234 70.177 31.5074 69.057 31.5074H65.505V41.9234Z" fill="#111111"/>
<path d="M1.992 23V6.2H9.264C10.768 6.2 12.064 6.448 13.152 6.944C14.24 7.424 15.08 8.12 15.672 9.032C16.264 9.944 16.56 11.032 16.56 12.296C16.56 13.544 16.264 14.624 15.672 15.536C15.08 16.448 14.24 17.152 13.152 17.648C12.064 18.128 10.768 18.368 9.264 18.368H4.152L5.88 16.616V23H1.992ZM5.88 17.048L4.152 15.2H9.048C10.248 15.2 11.144 14.944 11.736 14.432C12.328 13.92 12.624 13.208 12.624 12.296C12.624 11.368 12.328 10.648 11.736 10.136C11.144 9.624 10.248 9.368 9.048 9.368H4.152L5.88 7.52V17.048ZM27.6101 23.288C26.3141 23.288 25.1061 23.08 23.9861 22.664C22.8821 22.232 21.9221 21.624 21.1061 20.84C20.2901 20.056 19.6501 19.136 19.1861 18.08C18.7381 17.024 18.5141 15.864 18.5141 14.6C18.5141 13.336 18.7381 12.176 19.1861 11.12C19.6501 10.064 20.2901 9.144 21.1061 8.36C21.9381 7.576 22.9061 6.976 24.0101 6.56C25.1141 6.128 26.3221 5.912 27.6341 5.912C29.0901 5.912 30.4021 6.168 31.5701 6.68C32.7541 7.176 33.7461 7.912 34.5461 8.888L32.0501 11.192C31.4741 10.536 30.8341 10.048 30.1301 9.728C29.4261 9.392 28.6581 9.224 27.8261 9.224C27.0421 9.224 26.3221 9.352 25.6661 9.608C25.0101 9.864 24.4421 10.232 23.9621 10.712C23.4821 11.192 23.1061 11.76 22.8341 12.416C22.5781 13.072 22.4501 13.8 22.4501 14.6C22.4501 15.4 22.5781 16.128 22.8341 16.784C23.1061 17.44 23.4821 18.008 23.9621 18.488C24.4421 18.968 25.0101 19.336 25.6661 19.592C26.3221 19.848 27.0421 19.976 27.8261 19.976C28.6581 19.976 29.4261 19.816 30.1301 19.496C30.8341 19.16 31.4741 18.656 32.0501 17.984L34.5461 20.288C33.7461 21.264 32.7541 22.008 31.5701 22.52C30.4021 23.032 29.0821 23.288 27.6101 23.288Z" fill="#111111"/>
</svg>
